<svg id="Layer_1" data-name="Layer 1" xmlns="http://www.w3.org/2000/svg" viewBox="0 0 205.12 176.35"><defs><style>.cls-1,.cls-4{fill:#f29222;}.cls-1,.cls-2,.cls-3{stroke:#f29222;stroke-miterlimit:10;}.cls-2{fill:none;stroke-width:9px;}.cls-3{fill:#423222;}</style></defs><title>Steaming_Coffee</title><rect id="Plate" class="cls-1" x="4.5" y="157.05" width="153.56" height="18.8"/><rect id="Cup" class="cls-2" x="4.5" y="67.03" width="153.85" height="78.04"/><polyline id="Handle" class="cls-2" points="165.96 75.63 200.62 75.63 200.62 117.15 165.96 117.15"/><rect id="Coffee" class="cls-3" x="8.93" y="71.05" width="145" height="70"/><path class="cls-4" d="M123.11,31.15c0,4.51-9.06,11.85-9.76,20.74-.59,7.53-1.69,11.11,2.79,11.11,4.33,0,.87-6.49,3.49-14.81,1.39-4.45,3.21-9.15,7.66-10.38,23.64-6.49-8.69-16.12-5.57-20.74C125.41,11.61,136.5,3,132.87,3,129,3,114,14.3,112,21.52,110.67,26,123.11,25.26,123.11,31.15Z" transform="translate(-3.2 -2.97)"/><path class="cls-4" d="M61.35,31.11c0,4.52-9.07,11.86-9.76,20.75C51,59.38,49.89,63,54.38,63c4.32,0,.87-6.49,3.48-14.82,1.39-4.44,3.21-9.14,7.67-10.37C89.17,31.28,56.83,21.66,60,17,63.64,11.57,74.73,3,71.1,3c-3.91,0-18.83,11.3-20.91,18.51C48.9,26,61.35,25.23,61.35,31.11Z" transform="translate(-3.2 -2.97)"/></svg>